# xmcd
#
# Track frame offsets: 
#        150
#        10500
#        27000
#        33825
#        45600
#        56850
#        72450
#        87225
#        104625
#        114825
#        121125
#        136638
#        155088
#        170641
#        186391
#        196666
#
# Disc length: 2825 seconds
#
# Revision: 0
# Processed by: cddbd v1.5.2PL0 Copyright (c) Steve Scherf et al.
# Submitted via: ExactAudioCopy v0.95b4
#
DISCID=cf0b0710
DTITLE=Big Black Boots - Взрослый Хип-Хоп
DYEAR=2006
DGENRE=Rap
TTITLE0=G-Интро 
TTITLE1=Шестое правило
TTITLE2=Монополия (skit)
TTITLE3=Взрослый Хип-Хоп
TTITLE4=Кто здесь
TTITLE5=Пирсинг
TTITLE6=Грязные танцы
TTITLE7=Эй друг
TTITLE8=Хорошие девочки (Нифи Gасебе)
TTITLE9=Только самое лучшее
TTITLE10=Парни
TTITLE11=Выходи драцца
TTITLE12=Водка-Редбул
TTITLE13=Знаю
TTITLE14=1996-ой
TTITLE15=Я хочу чтобы песни звучали 
EXTD=
EXTT0=
EXTT1=
EXTT2=
EXTT3=
EXTT4=
EXTT5=
EXTT6=
EXTT7=
EXTT8=
EXTT9=
EXTT10=
EXTT11=
EXTT12=
EXTT13=
EXTT14=
EXTT15=
PLAYORDER=
